<?xml version="1.0" encoding="utf-8"?>
<!-- Generator: Adobe Illustrator 27.4.1, SVG Export Plug-In . SVG Version: 6.00 Build 0)  -->
<svg version="1.2" baseProfile="tiny" id="Layer_1" xmlns="http://www.w3.org/2000/svg" xmlns:xlink="http://www.w3.org/1999/xlink"
	 x="0px" y="0px" viewBox="0 0 553.4 80.5" overflow="visible" xml:space="preserve">
<g>
	<polygon fill="#ED1C24" points="553.4,79.4 528.4,79.4 528.4,53.9 553.3,53.9 	"/>
	<polygon fill="#FFFFFF" points="45.6,1.5 45.6,18.1 19.8,18.1 19.8,31.4 44,31.4 44,47.3 19.8,47.3 19.8,79.3 0,79.3 0,1.5 	"/>
	<polygon fill="#FFFFFF" points="96.6,1.5 96.6,18.1 70.8,18.1 70.8,31.4 95,31.4 95,47.3 70.8,47.3 70.8,62.7 97.6,62.7 97.6,79.3 
		50.5,79.3 50.5,1.5 	"/>
	<g>
		<path fill="none" d="M133.3,20.4c-0.6-1.7-1.5-2.9-2.7-3.4c-1.2-0.5-2.7-0.8-4.7-0.8h-4v48.6h4c2,0,3.5-0.3,4.7-0.8
			c1.2-0.6,2-1.7,2.7-3.4c0.6-1.8,1-4.2,1.2-7.4c0.2-3.2,0.3-7.4,0.3-12.6c0-5.2-0.1-9.4-0.3-12.6C134.3,24.6,133.9,22.1,133.3,20.4
			z"/>
		<path fill="#FFFFFF" d="M152.1,13.3c-1.6-3.6-4.1-6.5-7.4-8.6c-3.3-2.1-7.8-3.2-13.7-3.2h-29.4v77.7H131c5.9,0,10.4-1.1,13.7-3.2
			c3.3-2.2,5.7-5,7.4-8.6c1.6-3.6,2.6-7.7,3-12.4c0.4-4.7,0.5-9.6,0.5-14.6c0-5.1-0.2-10-0.5-14.6C154.7,21.1,153.7,16.9,152.1,13.3
			z M134.5,53c-0.2,3.2-0.6,5.6-1.2,7.4c-0.6,1.7-1.5,2.9-2.7,3.4c-1.2,0.5-2.7,0.8-4.7,0.8h-4V16.1h4c2,0,3.5,0.3,4.7,0.8
			c1.2,0.5,2,1.7,2.7,3.4c0.6,1.8,1,4.2,1.2,7.4c0.2,3.2,0.3,7.4,0.3,12.6C134.7,45.6,134.6,49.8,134.5,53z"/>
	</g>
	<polygon fill="#FFFFFF" points="206.2,1.5 206.2,18.1 180.4,18.1 180.4,31.4 204.5,31.4 204.5,47.3 180.4,47.3 180.4,62.7 
		207.1,62.7 207.1,79.3 160.1,79.3 160.1,1.5 	"/>
	<g>
		<path fill="none" d="M235.6,16.3h-3.9v18.3h4c2.9,0,5.1-0.9,6.4-2.6c1.4-1.7,2.1-3.9,2.1-6.7c0-3.3-0.7-5.6-2-7
			C240.8,17,238.6,16.3,235.6,16.3z"/>
		<path fill="#FFFFFF" d="M265.6,77.2c-0.3-0.4-0.6-0.8-0.9-1.3c-0.2-0.4-0.4-1.1-0.5-1.9c-0.1-0.8-0.3-1.7-0.3-2.7
			c-0.1-1-0.1-2-0.1-3.1v-3.2v-6.7c0-5.2-0.9-9.3-2.7-12.3c-1.8-3-5.1-4.7-10-5.1v-0.2c4.6-0.7,8-2.7,10.1-5.9
			c2.1-3.2,3.1-7.4,3.1-12.6c0-3-0.4-5.7-1.1-8.3c-0.8-2.5-2-4.7-3.7-6.6c-1.7-1.9-3.9-3.3-6.6-4.3c-2.7-1-6-1.5-9.8-1.5h-31.6v77.7
			h20.3V48.3h5.3c1.2,0,2.3,0.2,3.1,0.5c0.8,0.3,1.5,0.9,2.1,1.7c0.5,0.8,0.9,2,1.1,3.4c0.2,1.5,0.3,3.3,0.3,5.4v5.2
			c0,0.8,0,1.8,0.1,3.1c0,1.3,0.1,2.6,0.2,4c0.1,1.4,0.3,2.8,0.5,4.2c0.3,1.4,0.6,2.6,1.1,3.6H267v-1.1
			C266.4,78,265.9,77.6,265.6,77.2z M242.1,32c-1.4,1.7-3.5,2.6-6.4,2.6h-4V16.3h3.9c3.1,0,5.2,0.7,6.6,2.1c1.3,1.4,2,3.7,2,7
			C244.2,28.1,243.5,30.3,242.1,32z"/>
	</g>
	<path fill="#FFFFFF" d="M300.6,17.4l-5.6,33h11.3l-5.5-33H300.6z M313.5,1.5l18.9,77.7h-21.6l-2.1-13.6h-16.1l-2.1,13.6h-21.2
		L288,1.5H313.5z"/>
	<polygon fill="#FFFFFF" points="326,18.7 326,1.5 376.5,1.5 376.5,18.7 361.2,18.7 361.2,79.3 341,79.3 341,18.7 	"/>
	<rect x="381.6" y="1.5" fill="#FFFFFF" width="20.3" height="77.7"/>
	<g>
		<path fill="none" d="M440.9,19.2c-0.5-2-1.2-3.5-2.1-4.3c-0.9-0.8-2.1-1.2-3.7-1.2c-1.5,0-2.7,0.4-3.6,1.2
			c-0.9,0.8-1.6,2.2-2.1,4.3c-0.5,2-0.8,4.8-0.9,8.2c-0.1,3.4-0.2,7.8-0.2,13c0,5.2,0.1,9.6,0.2,13c0.1,3.5,0.5,6.2,0.9,8.2
			c0.5,2,1.2,3.4,2.1,4.3c0.9,0.8,2.1,1.2,3.6,1.2c1.5,0,2.7-0.4,3.7-1.2c0.9-0.8,1.6-2.2,2.1-4.3c0.5-2,0.8-4.8,0.9-8.2
			c0.1-3.5,0.2-7.8,0.2-13c0-5.2-0.1-9.6-0.2-13C441.7,23.9,441.4,21.2,440.9,19.2z"/>
		<path fill="#FFFFFF" d="M456.9,9.3c-2.2-3.2-5-5.6-8.6-7.1c-3.6-1.5-7.9-2.2-13.1-2.2c-5.2,0-9.5,0.7-13.1,2.2
			c-3.6,1.5-6.4,3.9-8.6,7.1c-2.2,3.2-3.7,7.4-4.7,12.5c-1,5.1-1.4,11.3-1.4,18.6c0,7.3,0.5,13.4,1.4,18.6c0.9,5.1,2.5,9.3,4.7,12.5
			c2.2,3.2,5,5.5,8.6,6.9c3.6,1.4,7.9,2.1,13.1,2.1c5.2,0,9.5-0.7,13.1-2.1c3.5-1.4,6.4-3.7,8.6-6.9c2.2-3.2,3.7-7.4,4.7-12.5
			c0.9-5.1,1.4-11.3,1.4-18.6c0-7.3-0.5-13.4-1.4-18.6C460.6,16.7,459.1,12.5,456.9,9.3z M441.9,53.4c-0.1,3.5-0.5,6.2-0.9,8.2
			c-0.5,2-1.2,3.4-2.1,4.3c-0.9,0.8-2.1,1.2-3.7,1.2c-1.5,0-2.7-0.4-3.6-1.2c-0.9-0.8-1.6-2.2-2.1-4.3c-0.5-2-0.8-4.8-0.9-8.2
			c-0.1-3.5-0.2-7.8-0.2-13c0-5.2,0.1-9.6,0.2-13c0.1-3.4,0.5-6.2,0.9-8.2c0.5-2,1.2-3.5,2.1-4.3c0.9-0.8,2.1-1.2,3.6-1.2
			c1.5,0,2.7,0.4,3.7,1.2c0.9,0.8,1.6,2.2,2.1,4.3c0.5,2,0.8,4.8,0.9,8.2c0.1,3.4,0.2,7.8,0.2,13C442.1,45.6,442,50,441.9,53.4z"/>
	</g>
	<polygon fill="#FFFFFF" points="491,1.5 504.1,49.4 504.3,49.4 504.3,1.5 523.2,1.5 523.2,79.3 501,79.3 487.5,31.3 487.3,31.3 
		487.3,79.3 468.3,79.3 468.3,1.5 	"/>
</g>
</svg>
